<?xml version="1.0" encoding="UTF-8"?>
<svg id="Layer_1" data-name="Layer 1" xmlns="http://www.w3.org/2000/svg" xmlns:xlink="http://www.w3.org/1999/xlink" viewBox="0 0 4000 4000">
  <defs>
    <style>
      .cls-1 {
        fill: url(#linear-gradient);
        stroke: url(#linear-gradient-2);
        stroke-miterlimit: 10;
        stroke-width: 20.65px;
      }
    </style>
    <linearGradient id="linear-gradient" x1="1128.73" y1="3176.83" x2="2925.16" y2="846.05" gradientUnits="userSpaceOnUse">
      <stop offset="0" stop-color="#f9ddb3"/>
      <stop offset=".2" stop-color="#b77d43"/>
      <stop offset=".44" stop-color="#ffda96"/>
      <stop offset=".66" stop-color="#b77d43"/>
      <stop offset="1" stop-color="#ffda96"/>
    </linearGradient>
    <linearGradient id="linear-gradient-2" x1="878.45" y1="2005.77" x2="3121.55" y2="2005.77" gradientUnits="userSpaceOnUse">
      <stop offset="0" stop-color="#fff8ec"/>
      <stop offset=".2" stop-color="#e2b373"/>
      <stop offset=".44" stop-color="#f9f6d7"/>
      <stop offset=".66" stop-color="#e2b373"/>
      <stop offset="1" stop-color="#fff8ec"/>
    </linearGradient>
  </defs>
  <path class="cls-1" d="m3108.66,2047.84s-22.77-696.78-592.12-1316.17c0,0-305.1,200.34-500.94,441.72,0,0-314.19-314.19-532.8-441.72,0,0-633.07,742.32-592.12,1475.56,41.05,733.24,551.08,1006.48,783.37,1061.11,0,0-1202.32-728.64-86.49-2163.26,0,0,214.02,136.62,264.05,227.7-328.46,503.97-370.87,998.66-156.26,1204.66,43.68,41.92,123.43,96.36,270.11,111.6,199.16-7.82,295.33-82.58,336.47-123.04,213.33-209.82,176.39-704.31-172.49-1179.55,20.82-28.63,45.93-59.03,75.74-89.91,48.37-50.13,117.86-110.43,202.1-151.47,0,0,1147.69,1297.99-81.99,2163.26,0,0,838-191.25,783.37-1220.5Zm-1093.06,487.26s-601.11-9.09-22.77-1038.33c0,0,623.98,929.08,22.77,1038.33Z"/>
</svg>

