<?xml version="1.0" encoding="UTF-8"?>
<svg id="Layer_1" data-name="Layer 1" xmlns="http://www.w3.org/2000/svg" viewBox="0 0 4000 4000">
  <path d="m1674.05,3277.29c-.68,0-1.37-.08-2.05-.24-67.35-15.84-144.38-46.6-216.9-86.61-92.45-51-176.86-115.59-250.88-191.95-89.32-92.15-161.55-199.88-214.68-320.2-61.9-140.19-98.17-298.51-107.8-470.57-9.4-168.32,16.05-351.02,75.63-543.04,47.59-153.38,116.96-313.03,206.17-474.53,151.83-274.85,310.85-462.43,312.44-464.3,1.75-2.06,4.27-3.14,6.82-3.14,1.54,0,3.1.4,4.51,1.22,62.69,36.57,174.26,113.05,349.83,269.74,86.91,77.56,156.16,145.12,177.76,166.42,57.31-69.52,157.88-176.73,319.03-305.09,99.92-79.59,176.93-130.32,177.69-130.82,1.51-.99,3.21-1.47,4.91-1.47,2.44,0,4.85.99,6.6,2.89,130.37,141.83,242.74,299.54,334,468.76,73,135.38,132.74,278.38,177.54,425.03,39.87,130.51,60.29,239.84,70.39,308.58,10.84,73.7,12.45,116.67,12.54,119.47,12.52,236.13-21.15,447.71-100.09,628.87-63.25,145.15-155.49,271.14-274.17,374.48-105.55,91.9-212.9,148.48-284.38,179.77-77.59,33.96-129.51,46-131.68,46.49-.67.15-1.33.23-2,.23-3.47,0-6.72-2.03-8.18-5.31-1.74-3.91-.47-8.5,3.03-10.96,89.8-63.19,170.04-131.13,238.5-201.96,64.75-66.98,120.65-138.28,166.13-211.9,83.02-134.38,134.34-281.16,152.54-436.28,17.95-152.96,4.1-316.42-41.15-485.84-36.26-135.75-92.64-275.59-167.59-415.65-114.79-214.53-238.71-364.09-263.54-393.21-47.55,23.95-117.87,68.3-193.41,146.59-26.02,26.96-49.91,55.09-71.08,83.7,83.13,114.03,150.83,232.35,201.28,351.8,48.55,114.94,80.03,228.12,93.57,336.39,13.19,105.46,8.93,202.21-12.68,287.56-21.82,86.19-60.35,156.91-114.51,210.18-30.93,30.42-68.45,55.82-111.53,75.52-65.13,29.78-142.8,46.62-230.87,50.08-.12,0-.23,0-.35,0-.31,0-.62-.02-.93-.05-116.5-12.11-209.15-50.48-275.39-114.05-108.1-103.77-153.63-280.66-128.21-498.1,12.75-109.09,42.75-224.97,89.17-344.4,47.83-123.09,112.08-247.18,191.01-368.91-47.39-78.86-215.45-191.74-251.54-215.42-102.93,132.99-190.06,265.6-259.03,394.24-65.12,121.46-115.64,242.37-150.18,359.37-60.87,206.22-74.11,406.29-39.35,594.66,22.24,120.52,64.34,237.32,125.14,347.17,48.67,87.93,109.37,171.63,180.4,248.78,120.92,131.32,231.02,198.72,232.12,199.38,3.77,2.28,5.31,6.97,3.65,11.04-1.4,3.43-4.72,5.57-8.29,5.57Zm319.37-1763.24c-126.01,226.27-203.87,420.18-231.46,576.48-22.33,126.46-11.93,228.43,30.9,303.07,16.97,29.57,39.16,54.92,65.97,75.34,21.52,16.4,46.07,29.69,72.97,39.53,42.33,15.48,77.4,17.43,83.13,17.65,60.1-11.03,110.15-31.05,148.77-59.49,35.54-26.18,62.33-60.21,79.64-101.15,28.1-66.48,32.25-152.97,12.33-257.07-16.08-84.03-47.76-179.49-94.17-283.74-65.89-148-143.32-272.18-168.07-310.62Z"/>
  <path d="m2516.54,731.67c569.35,619.39,592.12,1316.17,592.12,1316.17,54.63,1029.25-783.37,1220.5-783.37,1220.5,1229.68-865.26,81.99-2163.26,81.99-2163.26-84.24,41.05-153.72,101.34-202.1,151.47-29.81,30.88-54.92,61.27-75.74,89.91,348.88,475.24,385.82,969.73,172.49,1179.55-41.14,40.46-137.31,115.22-336.47,123.03-146.69-15.24-226.43-69.68-270.11-111.6-214.6-206.01-172.19-700.69,156.26-1204.66-50.04-91.08-264.06-227.7-264.06-227.7-1115.83,1434.61,86.49,2163.26,86.49,2163.26-232.29-54.63-742.32-327.87-783.37-1061.11-40.95-733.24,592.12-1475.56,592.12-1475.56,218.61,127.53,532.8,441.72,532.8,441.72,195.84-241.38,500.94-441.72,500.94-441.72m-500.94,1803.43c601.21-109.26-22.77-1038.33-22.77-1038.33-578.34,1029.25,22.77,1038.33,22.77,1038.33m-532.79-1821.34c-5.1,0-10.13,2.18-13.64,6.29-1.63,1.92-40.7,47.86-99.15,128.56-53.86,74.35-134.76,193.21-214.31,337.22-89.51,162.03-159.11,322.25-206.89,476.2-28.42,91.6-49.34,181.99-62.17,268.65-14.14,95.53-18.8,188.91-13.85,277.54,5,89.38,17.24,175.84,36.37,256.98,17.86,75.77,42.15,148.68,72.18,216.7,53.55,121.29,126.38,229.9,216.44,322.81,74.64,77,159.76,142.12,252.98,193.56,73.22,40.4,151.06,71.47,219.18,87.49,1.37.32,2.75.48,4.11.48,7.14,0,13.77-4.29,16.57-11.14,3.33-8.16.24-17.52-7.3-22.09-.27-.16-27.9-17.02-70.04-49.85-38.84-30.26-98.31-80.66-161.07-148.96-70.4-76.62-130.54-159.71-178.74-246.97-60.13-108.87-101.76-224.61-123.74-344-16.35-88.86-22.03-181.22-16.87-274.52,5.67-102.54,24.57-208.79,56.19-315.82,34.37-116.37,84.67-236.66,149.48-357.54,67.58-126.03,152.67-255.91,253.05-386.24,19.59,13,57.8,38.96,98.58,70.05,69.8,53.21,117.98,99,140.33,133.25-77.84,120.71-141.32,243.71-188.75,365.75-46.69,120.14-76.87,236.76-89.71,346.6-12.68,108.47-8.09,206.99,13.63,292.8,10.93,43.15,26.26,82.93,45.59,118.23,19.71,36.01,43.83,67.83,71.68,94.56,67.71,64.98,162.14,104.18,280.66,116.5.62.06,1.23.1,1.85.1.23,0,.47,0,.7-.01,89.24-3.5,168.04-20.62,234.24-50.89,44.03-20.13,82.41-46.13,114.09-77.28,27.67-27.21,51.67-59.4,71.33-95.66,19.33-35.64,34.66-75.58,45.58-118.7,10.83-42.78,17.42-89.11,19.58-137.72,2.17-48.74-.08-100.26-6.7-153.15-13.65-109.09-45.34-223.06-94.21-338.76-49.93-118.21-116.65-235.31-198.41-348.24,19.95-26.49,42.25-52.52,66.4-77.55,27.45-28.45,56.29-54.51,85.73-77.46,32.52-25.36,65.76-46.89,99-64.15,13.47,16.02,41.22,49.93,76.52,98.16,46.28,63.22,115.38,164.65,181.81,288.91,74.51,139.38,130.55,278.51,166.55,413.51,21.32,79.96,35.76,159.34,42.92,235.93,7.85,84.08,7.12,166.89-2.19,246.12-8.73,74.3-25.22,147.28-49.01,216.91-25.4,74.34-59.81,146.88-102.29,215.62-45.15,73.06-100.64,143.83-164.94,210.34-68.06,70.4-147.86,137.97-237.18,200.81-7,4.92-9.54,14.11-6.06,21.93,2.92,6.57,9.41,10.63,16.36,10.63,1.32,0,2.66-.15,3.99-.45,2.21-.5,54.92-12.72,133.28-47.02,45.85-20.07,91.04-43.6,134.31-69.93,54.1-32.93,105.36-70.37,152.35-111.28,119.69-104.22,212.72-231.28,276.5-377.65,37.81-86.78,65.61-181.36,82.62-281.11,18.66-109.42,24.78-227.77,18.21-351.75-.13-3.74-1.84-47.04-12.63-120.37-10.15-69.04-30.66-178.85-70.69-309.89-44.97-147.22-104.93-290.77-178.22-426.67-91.61-169.88-204.42-328.2-335.29-470.57-3.5-3.81-8.32-5.79-13.19-5.79-3.39,0-6.81.96-9.82,2.94-.77.51-78.12,51.46-178.36,131.3-58.88,46.9-114.1,94.5-164.12,141.48-56.99,53.52-107.37,106.39-150,157.4-27.31-26.76-91.91-89.19-171.13-159.89-61.74-55.1-120.2-104.42-173.75-146.57-67.22-52.92-126.95-94.71-177.53-124.22-2.82-1.64-5.93-2.44-9.02-2.44h0Zm531.49,1803.37c-7.53-.37-40.6-2.77-80.1-17.32-25.97-9.57-49.65-22.46-70.37-38.32-25.72-19.68-47.02-44.1-63.32-72.56-41.68-72.8-51.67-172.76-29.68-297.09,26.92-152.26,101.96-340.65,223.15-560.31,10.27,16.24,24.84,39.84,41.85,68.97,30.9,52.93,76.39,135.46,117.6,228.04,46.1,103.58,77.55,198.35,93.48,281.68,19.55,102.27,15.58,186.99-11.81,251.78-16.67,39.44-42.48,72.22-76.7,97.42-37.31,27.48-85.77,46.89-144.08,57.71h0Z"/>
</svg>