<?xml version="1.0" encoding="UTF-8"?>
<svg id="Layer_1" data-name="Layer 1" xmlns="http://www.w3.org/2000/svg" viewBox="0 0 4000 4000">
  <defs>
    <style>
      .cls-1 {
        fill: #12241d;
      }
    </style>
  </defs>
  <path class="cls-1" d="m3094.61,2047.23s-22.48-687.95-584.62-1299.49c0,0-301.23,197.8-494.59,436.12,0,0-310.21-310.21-526.05-436.12,0,0-625.05,732.92-584.62,1456.86,40.53,723.94,544.09,993.72,773.44,1047.66,0,0-1187.08-719.41-85.39-2135.84,0,0,211.31,134.89,260.71,224.82-324.29,497.59-366.17,986-154.28,1189.4,43.13,41.39,121.86,95.14,266.69,110.19,196.64-7.72,291.59-81.53,332.21-121.48,210.63-207.16,174.16-695.38-170.3-1164.6,20.55-28.27,45.35-58.28,74.78-88.77,47.76-49.5,116.36-109.03,199.54-149.56,0,0,1133.15,1281.54-80.95,2135.84,0,0,827.38-188.83,773.44-1205.03Zm-1079.21,481.09s-593.49-8.97-22.48-1025.18c0,0,616.07,917.31,22.48,1025.18Z"/>
</svg>