<?xml version="1.0" encoding="UTF-8"?>
<svg id="Layer_1" data-name="Layer 1" xmlns="http://www.w3.org/2000/svg" viewBox="0 0 4000 4000">
  <defs>
    <style>
      .cls-1 {
        letter-spacing: .05em;
      }

      .cls-2 {
        font-family: BanglaMN, 'Bangla MN';
        font-size: 309.45px;
      }

      .cls-3 {
        letter-spacing: .05em;
      }

      .cls-4 {
        letter-spacing: .06em;
      }

      .cls-5 {
        letter-spacing: .05em;
      }

      .cls-6 {
        font-family: Montserrat-Medium, Montserrat;
        font-size: 190.84px;
        font-weight: 500;
      }

      .cls-7 {
        letter-spacing: .05em;
      }

      .cls-8 {
        letter-spacing: .04em;
      }
    </style>
  </defs>
  <g>
    <text class="cls-6" transform="translate(1053.05 3110.85)"><tspan class="cls-7" x="0" y="0">o</tspan><tspan class="cls-1" x="129.77" y="0">asis de bien</tspan><tspan class="cls-4" x="1382.64" y="0">-</tspan><tspan class="cls-5" x="1467.18" y="0">êt</tspan><tspan class="cls-8" x="1682.06" y="0">r</tspan><tspan class="cls-3" x="1767.56" y="0">e</tspan></text>
    <g>
      <g>
        <g>
          <g>
            <path d="m1064.58,2807.85c-2.32-5.87-5.63-10.99-9.91-15.37-4.28-4.38-9.43-8-15.45-10.86-6.02-2.85-12.78-4.86-20.29-6.02v-.63c7.51-3.59,13.72-7.11,18.62-10.54,4.91-3.43,8.85-7.08,11.81-10.93,2.95-3.86,5.01-8.05,6.18-12.59,1.16-4.54,1.74-9.72,1.74-15.53,0-7.61-1.85-14.58-5.55-20.92-3.7-6.34-8.9-11.78-15.6-16.33-6.71-4.53-14.74-8.05-24.09-10.53-9.35-2.49-19.63-3.72-30.82-3.72h-84.63v210.13h98.1c11.19,0,21.32-1.48,30.35-4.44,9.03-2.95,16.74-6.99,23.14-12.13,6.39-5.11,11.31-11.14,14.73-18.06,3.44-6.92,5.15-14.34,5.15-22.27,0-6.97-1.16-13.39-3.49-19.25Zm-132.63-120.04h29.16c10.56,0,19.62.95,27.17,2.86,7.55,1.9,13.79,4.65,18.7,8.24,4.91,3.59,8.53,7.9,10.86,12.92,2.32,5.02,3.49,10.59,3.49,16.72,0,5.71-.98,11.01-2.93,15.93-1.95,4.91-4.83,9.13-8.64,12.68-3.8,3.54-8.45,6.32-13.94,8.32-5.49,2.01-11.77,3.01-18.85,3.01h-45v-80.66Zm94.52,156.88c-2.38,4.96-6.03,9.22-10.93,12.75-4.91,3.54-11.15,6.29-18.7,8.24-7.56,1.96-16.46,2.93-26.71,2.93h-38.18v-87.15h37.08c11.3,0,20.83,1.21,28.6,3.64,7.76,2.44,14.05,5.73,18.86,9.91,4.8,4.17,8.26,9.12,10.37,14.82,2.11,5.71,3.17,11.89,3.17,18.54,0,5.92-1.19,11.36-3.56,16.33Z"/>
            <path d="m981.23,2673.87c11.19,0,21.47,1.24,30.82,3.72,9.34,2.49,17.37,6,24.09,10.53,6.71,4.54,11.91,9.98,15.6,16.33,3.71,6.33,5.55,13.31,5.55,20.92,0,5.81-.58,10.99-1.74,15.53-1.17,4.54-3.23,8.73-6.18,12.59-2.96,3.86-6.9,7.51-11.81,10.93-4.91,3.44-11.12,6.95-18.62,10.54v.63c7.51,1.16,14.27,3.17,20.29,6.02,6.02,2.86,11.17,6.48,15.45,10.86,4.28,4.38,7.58,9.51,9.91,15.37,2.32,5.86,3.49,12.28,3.49,19.25,0,7.92-1.71,15.34-5.15,22.27-3.43,6.91-8.34,12.94-14.73,18.06-6.39,5.13-14.11,9.17-23.14,12.12-9.03,2.96-19.15,4.44-30.35,4.44h-98.1v-210.13h84.63m-49.28,94.6h45c7.08,0,13.36-1,18.85-3.01,5.5-2,10.14-4.77,13.94-8.32,3.81-3.54,6.69-7.76,8.64-12.68s2.93-10.22,2.93-15.93c0-6.12-1.16-11.7-3.49-16.72-2.32-5.02-5.94-9.32-10.86-12.92-4.91-3.59-11.14-6.34-18.7-8.24-7.55-1.9-16.61-2.86-27.17-2.86h-29.16v80.66m0,100.15h38.18c10.25,0,19.14-.97,26.71-2.93,7.54-1.95,13.78-4.7,18.7-8.24,4.91-3.53,8.55-7.79,10.93-12.75,2.37-4.96,3.56-10.4,3.56-16.33,0-6.65-1.06-12.83-3.17-18.54s-5.57-10.65-10.37-14.82c-4.81-4.17-11.1-7.47-18.86-9.91-7.77-2.43-17.31-3.64-28.6-3.64h-37.08v87.15m49.28-195.75h-85.63v212.13h99.1c11.26,0,21.58-1.51,30.66-4.49,9.11-2.98,17-7.12,23.45-12.3,6.47-5.18,11.52-11.37,15-18.39,3.49-7.02,5.26-14.67,5.26-22.71,0-7.07-1.2-13.67-3.56-19.62-2.36-5.96-5.76-11.24-10.12-15.7-4.34-4.44-9.63-8.17-15.74-11.06-5.51-2.61-11.7-4.54-18.42-5.75,6.71-3.3,12.39-6.56,16.9-9.72,4.96-3.46,9.01-7.21,12.03-11.14,3.02-3.94,5.16-8.3,6.36-12.95,1.18-4.6,1.77-9.91,1.77-15.78,0-7.76-1.91-14.97-5.69-21.42-3.75-6.44-9.1-12.04-15.9-16.65-6.79-4.58-14.99-8.17-24.39-10.67-9.38-2.49-19.84-3.76-31.08-3.76h0Zm-48.28,15.94h28.16c10.43,0,19.49.95,26.93,2.83,7.39,1.85,13.56,4.57,18.35,8.08,4.75,3.47,8.3,7.69,10.54,12.53,2.25,4.86,3.39,10.35,3.39,16.3,0,5.54-.96,10.77-2.86,15.56-1.89,4.75-4.71,8.89-8.39,12.31-3.69,3.44-8.26,6.16-13.61,8.11-5.34,1.96-11.57,2.95-18.51,2.95h-44v-78.66h0Zm0,93.66h36.08c11.15,0,20.68,1.21,28.3,3.59,7.6,2.39,13.83,5.65,18.5,9.71,4.65,4.04,8.04,8.89,10.09,14.41,2.06,5.57,3.11,11.69,3.11,18.19,0,5.74-1.17,11.08-3.46,15.89-2.3,4.79-5.87,8.95-10.62,12.37-4.78,3.45-10.96,6.17-18.36,8.08-7.42,1.93-16.32,2.9-26.46,2.9h-37.18v-85.15h0Z"/>
          </g>
          <g>
            <path d="m1474.85,2673.87l-72.58,106.49-72.89-106.49h-36.13l83.99,122.65v87.48h35.34v-90.8l81.45-119.33h-19.17Z"/>
            <path d="m1494.03,2673.87l-81.45,119.33v90.8h-35.34v-87.48l-83.99-122.65h36.13l72.89,106.49,72.58-106.49h19.17m1.89-1h-21.6l-.3.44-71.75,105.28-72.07-105.28-.3-.44h-38.55l1.07,1.56,83.81,122.4v88.17h37.34v-91.49l81.27-119.07,1.07-1.56h0Z"/>
          </g>
          <g>
            <path d="m1501,2673.87v13.63h76.06v196.5h35.34v-196.5h76.06v-13.63h-187.47Z"/>
            <path d="m1688.46,2673.87v13.63h-76.06v196.5h-35.34v-196.5h-76.06v-13.63h187.47m1-1h-189.47v15.63h76.06v196.5h37.34v-196.5h76.06v-15.63h0Z"/>
          </g>
          <g>
            <path d="m1805.26,2669.11h-8.88l-13.56,28.78,12.16,26.89.06.12,32.3,70.35,8.76,18.69h.06l1.91,4.2,30.1,65.84h35.97l-98.89-214.88Z"/>
            <path d="m1805.26,2669.11l98.89,214.88h-35.98l-30.1-65.84-1.91-4.2h-.06l-8.76-18.69-32.3-70.35-.06-.12-12.16-26.89,13.56-28.78h8.88m.64-1h-10.15l-.27.57-13.56,28.78-.2.42.19.42,12.16,26.89.06.13,32.3,70.35,8.77,18.7.27.58h.05l1.65,3.62,30.1,65.85.27.58h38.18l-.65-1.42-98.89-214.88-.27-.58h0Z"/>
          </g>
          <g>
            <path d="m2092.4,2673.87v153.71h-1.59l-137.7-153.71h-19.81v210.13h16v-165.91h1.27l149.12,170.83h8.24v-215.04h-15.53Z"/>
            <path d="m2107.93,2673.87v215.04h-8.24l-149.12-170.83h-1.27v165.91h-16v-210.13h19.81l137.7,153.71h1.59v-153.71h15.53m1-1h-17.53v153.71h-.14l-137.4-153.38-.3-.33h-21.26v212.13h18v-165.7l148.63,170.27.3.34h9.69v-217.04h0Z"/>
          </g>
        </g>
        <g>
          <path d="m1064.58,2807.85c-2.32-5.87-5.63-10.99-9.91-15.37-4.28-4.38-9.43-8-15.45-10.86-6.02-2.85-12.78-4.86-20.29-6.02v-.63c7.51-3.59,13.72-7.11,18.62-10.54,4.91-3.43,8.85-7.08,11.81-10.93,2.95-3.86,5.01-8.05,6.18-12.59,1.16-4.54,1.74-9.72,1.74-15.53,0-7.61-1.85-14.58-5.55-20.92-3.7-6.34-8.9-11.78-15.6-16.33-6.71-4.53-14.74-8.05-24.09-10.53-9.35-2.49-19.63-3.72-30.82-3.72h-84.63v210.13h98.1c11.19,0,21.32-1.48,30.35-4.44,9.03-2.95,16.74-6.99,23.14-12.13,6.39-5.11,11.31-11.14,14.73-18.06,3.44-6.92,5.15-14.34,5.15-22.27,0-6.97-1.16-13.39-3.49-19.25Zm-132.63-120.04h29.16c10.56,0,19.62.95,27.17,2.86,7.55,1.9,13.79,4.65,18.7,8.24,4.91,3.59,8.53,7.9,10.86,12.92,2.32,5.02,3.49,10.59,3.49,16.72,0,5.71-.98,11.01-2.93,15.93-1.95,4.91-4.83,9.13-8.64,12.68-3.8,3.54-8.45,6.32-13.94,8.32-5.49,2.01-11.77,3.01-18.85,3.01h-45v-80.66Zm94.52,156.88c-2.38,4.96-6.03,9.22-10.93,12.75-4.91,3.54-11.15,6.29-18.7,8.24-7.56,1.96-16.46,2.93-26.71,2.93h-38.18v-87.15h37.08c11.3,0,20.83,1.21,28.6,3.64,7.76,2.44,14.05,5.73,18.86,9.91,4.8,4.17,8.26,9.12,10.37,14.82,2.11,5.71,3.17,11.89,3.17,18.54,0,5.92-1.19,11.36-3.56,16.33Z"/>
          <path d="m1474.85,2673.87l-72.58,106.49-72.89-106.49h-36.13l83.99,122.65v87.48h35.34v-90.8l81.45-119.33h-19.17Z"/>
          <path d="m1501,2673.87v13.63h76.06v196.5h35.34v-196.5h76.06v-13.63h-187.47Z"/>
          <path d="m1805.26,2669.11h-8.88l-13.56,28.78,12.16,26.89.06.12,32.3,70.35,8.76,18.69h.06l1.91,4.2,30.1,65.84h35.97l-98.89-214.88Z"/>
          <path d="m2092.4,2673.87v153.71h-1.59l-137.7-153.71h-19.81v210.13h16v-165.91h1.27l149.12,170.83h8.24v-215.04h-15.53Z"/>
        </g>
      </g>
      <path d="m1791.91,2855.55c0,18.2-14.76,32.96-32.96,32.96s-32.96-14.76-32.96-32.96,20.24-57.57,32.96-86.56c13.99,29.81,32.96,68.36,32.96,86.56Z"/>
      <path d="m1207.03,2669.11h-8.88l-13.56,28.78,12.16,26.89.06.12,32.3,70.35,8.76,18.69h.06l1.91,4.2,30.1,65.84h35.97l-98.89-214.88Z"/>
      <path d="m1193.68,2855.55c0,18.2-14.76,32.96-32.96,32.96s-32.96-14.76-32.96-32.96,20.24-57.57,32.96-86.56c13.99,29.81,32.96,68.36,32.96,86.56Z"/>
      <text class="cls-2" transform="translate(2275.62 2900.21)"><tspan x="0" y="0">GROUP</tspan></text>
      <g>
        <path d="m600.37,2673.87h36.05l81.76,161.25h1.66l80.25-161.25h35.45v210.12h-35.45v-172.11h-1.21l-86.13,172.11h-7.24l-87.19-170.91h-2.41v170.91h-15.54v-210.12Z"/>
        <path d="m835.54,2673.87v210.12h-35.45v-172.11h-1.21l-86.13,172.11h-7.24l-87.19-170.91h-2.41v170.91h-15.54v-210.12h36.05l81.76,161.25h1.66l80.25-161.25h35.45m1-1h-37.07l-.28.55-79.97,160.7h-.43l-81.48-160.7-.28-.55h-37.67v212.12h17.54v-170.91h.8l86.91,170.36.28.55h8.47l.28-.55,85.44-170.74v171.29h37.45v-212.12h0Z"/>
      </g>
    </g>
  </g>
  <g>
    <path d="m1778.35,2563.94c-.46,0-.93-.05-1.4-.16-40.87-9.61-184.58-51.67-318.11-189.43-60.74-62.67-109.86-135.93-145.99-217.74-42.09-95.33-66.76-203-73.31-320-6.39-114.46,10.91-238.71,51.43-369.29,32.37-104.3,79.54-212.87,140.21-322.7,103.25-186.91,211.39-314.47,212.47-315.74,1.19-1.4,2.9-2.14,4.64-2.14,1.05,0,2.11.27,3.07.83,135.34,78.95,326.26,264.58,358.78,296.61,68.52-83.16,155.48-158.51,216.95-207.47,67.95-54.13,120.32-88.62,120.84-88.96,1.02-.67,2.19-1,3.34-1,1.66,0,3.3.67,4.49,1.97,88.66,96.45,165.07,203.7,227.13,318.78,49.65,92.06,90.27,189.31,120.73,289.04,51.37,168.17,56.27,287.49,56.4,291.08,8.51,160.58-14.39,304.47-68.07,427.67-43.01,98.7-105.74,184.38-186.45,254.66-71.78,62.5-144.78,100.97-193.39,122.25-52.76,23.09-88.07,31.28-89.55,31.62-.45.1-.91.15-1.36.15-2.36,0-4.57-1.38-5.56-3.61-1.18-2.66-.32-5.78,2.06-7.46,224.96-158.29,352.44-352.78,378.89-578.06,27.67-235.65-61.83-463.32-141.79-612.82-78.07-145.97-162.47-247.86-179.37-267.68-56.62,28.48-102.63,69.74-131.52,99.69-17.7,18.33-33.94,37.46-48.34,56.92,56.53,77.54,102.57,158.01,136.88,239.24,33.01,78.17,54.42,155.13,63.63,228.76,8.97,71.72,6.07,137.51-8.62,195.55-14.84,58.61-41.04,106.7-77.87,142.93-52.85,51.97-133.37,81.51-232.84,85.41-.08,0-.16,0-.24,0-.21,0-.42-.01-.63-.03-79.22-8.23-142.23-34.33-187.27-77.56-73.51-70.57-104.47-190.86-87.19-338.72,8.67-74.19,29.07-152.99,60.64-234.21,32.53-83.7,76.22-168.09,129.9-250.88-32.24-53.64-146.51-130.39-171.05-146.49-254.1,328.26-356.72,636.71-305.03,916.87,34.25,185.65,131.9,322.86,207.78,405.27,82.23,89.3,157.1,135.14,157.85,135.59,2.56,1.55,3.61,4.74,2.48,7.51-.95,2.33-3.21,3.79-5.63,3.79Zm217.18-1199.07c-85.69,153.87-138.64,285.74-157.4,392.03-15.18,86-8.11,155.34,21.01,206.1,20.99,36.59,52.78,62.87,94.48,78.11,28.79,10.52,52.64,11.86,56.53,12.01,78.52-14.42,130.78-51.17,155.33-109.25,19.11-45.21,21.93-104.03,8.38-174.82-10.93-57.14-32.48-122.06-64.04-192.95-44.81-100.65-97.46-185.09-114.3-211.23Z"/>
    <path d="m2351.27,832.83c387.18,421.2,402.66,895.04,402.66,895.04,37.15,699.93-532.72,829.98-532.72,829.98,836.23-588.41,55.76-1471.09,55.76-1471.09-57.29,27.91-104.54,68.92-137.43,103.01-20.27,21-37.35,41.67-51.5,61.14,237.25,323.18,262.37,659.45,117.3,802.14-27.98,27.51-93.37,78.35-228.81,83.67-99.75-10.37-153.98-47.38-183.69-75.89-145.94-140.09-117.1-476.5,106.26-819.22-34.03-61.94-179.57-154.85-179.57-154.85-758.81,975.59,58.82,1471.09,58.82,1471.09-157.97-37.15-504.81-222.96-532.72-721.59-27.85-498.63,402.66-1003.43,402.66-1003.43,148.66,86.73,362.32,300.39,362.32,300.39,133.18-164.15,340.66-300.39,340.66-300.39m-340.66,1226.4c408.84-74.3-15.48-706.11-15.48-706.11-393.29,699.93,15.48,706.11,15.48,706.11m-362.32-1238.58c-3.47,0-6.89,1.48-9.27,4.28-1.11,1.3-27.68,32.55-67.43,87.43-36.63,50.56-91.64,131.39-145.74,229.32-60.87,110.19-108.2,219.14-140.69,323.84-40.74,131.28-58.13,256.24-51.7,371.43,6.59,117.74,31.43,226.12,73.82,322.12,36.42,82.48,85.94,156.34,147.19,219.52,50.76,52.36,108.64,96.65,172.04,131.63,49.79,27.47,102.73,48.6,149.05,59.49.93.22,1.87.32,2.79.32,4.85,0,9.37-2.91,11.27-7.57,2.27-5.55.16-11.92-4.96-15.02-.74-.45-75.45-46.27-157.16-135.2-75.15-81.78-171.83-217.88-205.69-401.88-50.98-277.02,50.11-582.22,300.47-907.24,30.97,20.56,130.37,88.82,162.48,138.24-52.94,82.09-96.11,165.74-128.36,248.73-31.75,81.7-52.27,161-61.01,235.7-8.62,73.76-5.5,140.76,9.27,199.12,15.13,59.74,41.96,108.43,79.75,144.71,46.04,44.19,110.26,70.84,190.86,79.22.42.04.84.07,1.26.07.16,0,.32,0,.48,0,60.68-2.38,114.28-14.02,159.29-34.6,29.94-13.69,56.04-31.37,77.58-52.55,18.81-18.5,35.14-40.39,48.51-65.06,13.14-24.24,23.57-51.4,31-80.72,14.88-58.78,17.83-125.33,8.76-197.8-9.28-74.18-30.84-151.69-64.07-230.37-33.95-80.39-79.33-160.02-134.93-236.82,13.57-18.01,28.73-35.72,45.16-52.74,27.84-28.85,71.72-68.31,125.62-96.3,9.16,10.89,28.03,33.96,52.04,66.75,31.47,42.99,78.47,111.97,123.64,196.47,79.48,148.67,168.45,375.01,140.95,609.01-26.26,223.46-152.88,416.49-376.34,573.74-4.76,3.35-6.48,9.6-4.12,14.91,1.99,4.47,6.4,7.23,11.12,7.23.9,0,1.81-.1,2.71-.31,1.5-.34,37.35-8.65,90.63-31.97,31.18-13.65,61.91-29.65,91.34-47.56,36.79-22.39,71.65-47.85,103.61-75.68,81.4-70.87,144.66-157.28,188.03-256.82,25.71-59.01,44.62-123.33,56.18-191.17,12.69-74.41,16.85-154.88,12.39-239.2-.09-2.51-1.25-31.96-8.59-81.86-6.91-46.95-20.85-121.62-48.07-210.74-30.58-100.12-71.36-197.74-121.19-290.15-62.3-115.52-139.01-223.19-228.01-320.01-2.38-2.59-5.66-3.94-8.97-3.94-2.31,0-4.63.65-6.68,2-.52.34-53.12,34.99-121.29,89.29-40.04,31.89-77.59,64.26-111.61,96.21-38.75,36.4-73.01,72.35-102.01,107.04-18.57-18.2-62.5-60.65-116.37-108.73-96.15-85.81-176.53-147.77-238.88-184.15-1.92-1.12-4.03-1.66-6.13-1.66h0Zm361.43,1226.36c-5.12-.25-27.61-1.88-54.47-11.78-40.15-14.79-70.74-40.16-90.92-75.4-28.35-49.51-35.14-117.48-20.19-202.03,18.31-103.54,69.34-231.65,151.74-381.02,20.83,32.99,67.88,110.83,108.44,201.96,31.35,70.44,52.74,134.89,63.57,191.55,13.29,69.55,10.59,127.16-8.03,171.22-23.63,55.9-74.14,91.39-150.14,105.5h0Z"/>
  </g>
</svg>