<?xml version="1.0" encoding="UTF-8"?>
<svg id="Layer_1" data-name="Layer 1" xmlns="http://www.w3.org/2000/svg" xmlns:xlink="http://www.w3.org/1999/xlink" viewBox="0 0 4000 4000">
  <defs>
    <style>
      .cls-1 {
        letter-spacing: .05em;
      }

      .cls-2 {
        letter-spacing: .05em;
      }

      .cls-3 {
        letter-spacing: .06em;
      }

      .cls-4 {
        letter-spacing: .05em;
      }

      .cls-5 {
        fill: url(#linear-gradient);
        stroke: url(#linear-gradient-2);
        stroke-miterlimit: 10;
        stroke-width: 13.14px;
      }

      .cls-6 {
        font-family: BanglaMN, 'Bangla MN';
        font-size: 309.45px;
      }

      .cls-6, .cls-7, .cls-8 {
        fill: #402317;
      }

      .cls-9 {
        letter-spacing: .05em;
      }

      .cls-10 {
        letter-spacing: .04em;
      }

      .cls-8 {
        font-family: Montserrat-Medium, Montserrat;
        font-size: 190.84px;
        font-weight: 500;
      }
    </style>
    <linearGradient id="linear-gradient" x1="1445.9" y1="2387.87" x2="2588.37" y2="905.57" gradientUnits="userSpaceOnUse">
      <stop offset="0" stop-color="#f9ddb3"/>
      <stop offset=".2" stop-color="#b77d43"/>
      <stop offset=".44" stop-color="#ffda96"/>
      <stop offset=".66" stop-color="#b77d43"/>
      <stop offset="1" stop-color="#ffda96"/>
    </linearGradient>
    <linearGradient id="linear-gradient-2" x1="1286.73" y1="1643.12" x2="2713.27" y2="1643.12" gradientUnits="userSpaceOnUse">
      <stop offset="0" stop-color="#fff8ec"/>
      <stop offset=".2" stop-color="#e2b373"/>
      <stop offset=".44" stop-color="#f9f6d7"/>
      <stop offset=".66" stop-color="#e2b373"/>
      <stop offset="1" stop-color="#fff8ec"/>
    </linearGradient>
  </defs>
  <g>
    <text class="cls-8" transform="translate(1053.05 3110.85)"><tspan class="cls-9" x="0" y="0">o</tspan><tspan class="cls-1" x="129.77" y="0">asis de bien</tspan><tspan class="cls-3" x="1382.64" y="0">-</tspan><tspan class="cls-4" x="1467.18" y="0">êt</tspan><tspan class="cls-10" x="1682.06" y="0">r</tspan><tspan class="cls-2" x="1767.56" y="0">e</tspan></text>
    <g>
      <g>
        <g>
          <path class="cls-7" d="m1064.58,2807.85c-2.32-5.87-5.63-10.99-9.91-15.37-4.28-4.38-9.43-8-15.45-10.86-6.02-2.85-12.78-4.86-20.29-6.02v-.63c7.51-3.59,13.72-7.11,18.62-10.54,4.91-3.43,8.85-7.08,11.81-10.93,2.95-3.86,5.01-8.05,6.18-12.59,1.16-4.54,1.74-9.72,1.74-15.53,0-7.61-1.85-14.58-5.55-20.92-3.7-6.34-8.9-11.78-15.6-16.33-6.71-4.53-14.74-8.05-24.09-10.53-9.35-2.49-19.63-3.72-30.82-3.72h-84.63v210.13h98.1c11.19,0,21.32-1.48,30.35-4.44,9.03-2.95,16.74-6.99,23.14-12.13,6.39-5.11,11.31-11.14,14.73-18.06,3.44-6.92,5.15-14.34,5.15-22.27,0-6.97-1.16-13.39-3.49-19.25Zm-132.63-120.04h29.16c10.56,0,19.62.95,27.17,2.86,7.55,1.9,13.79,4.65,18.7,8.24,4.91,3.59,8.53,7.9,10.86,12.92,2.32,5.02,3.49,10.59,3.49,16.72,0,5.71-.98,11.01-2.93,15.93-1.95,4.91-4.83,9.13-8.64,12.68-3.8,3.54-8.45,6.32-13.94,8.32-5.49,2.01-11.77,3.01-18.85,3.01h-45v-80.66Zm94.52,156.88c-2.38,4.96-6.03,9.22-10.93,12.75-4.91,3.54-11.15,6.29-18.7,8.24-7.56,1.96-16.46,2.93-26.71,2.93h-38.18v-87.15h37.08c11.3,0,20.83,1.21,28.6,3.64,7.76,2.44,14.05,5.73,18.86,9.91,4.8,4.17,8.26,9.12,10.37,14.82,2.11,5.71,3.17,11.89,3.17,18.54,0,5.92-1.19,11.36-3.56,16.33Z"/>
          <path class="cls-7" d="m1474.85,2673.87l-72.58,106.49-72.89-106.49h-36.13l83.99,122.65v87.48h35.34v-90.8l81.45-119.33h-19.17Z"/>
          <path class="cls-7" d="m1501,2673.87v13.63h76.06v196.5h35.34v-196.5h76.06v-13.63h-187.47Z"/>
          <path class="cls-7" d="m1805.26,2669.11h-8.88l-13.56,28.78,12.16,26.89.06.12,32.3,70.35,8.76,18.69h.06l1.91,4.2,30.1,65.84h35.97l-98.89-214.88Z"/>
          <path class="cls-7" d="m2092.4,2673.87v153.71h-1.59l-137.7-153.71h-19.81v210.13h16v-165.91h1.27l149.12,170.83h8.24v-215.04h-15.53Z"/>
        </g>
        <g>
          <path class="cls-7" d="m1064.58,2807.85c-2.32-5.87-5.63-10.99-9.91-15.37-4.28-4.38-9.43-8-15.45-10.86-6.02-2.85-12.78-4.86-20.29-6.02v-.63c7.51-3.59,13.72-7.11,18.62-10.54,4.91-3.43,8.85-7.08,11.81-10.93,2.95-3.86,5.01-8.05,6.18-12.59,1.16-4.54,1.74-9.72,1.74-15.53,0-7.61-1.85-14.58-5.55-20.92-3.7-6.34-8.9-11.78-15.6-16.33-6.71-4.53-14.74-8.05-24.09-10.53-9.35-2.49-19.63-3.72-30.82-3.72h-84.63v210.13h98.1c11.19,0,21.32-1.48,30.35-4.44,9.03-2.95,16.74-6.99,23.14-12.13,6.39-5.11,11.31-11.14,14.73-18.06,3.44-6.92,5.15-14.34,5.15-22.27,0-6.97-1.16-13.39-3.49-19.25Zm-132.63-120.04h29.16c10.56,0,19.62.95,27.17,2.86,7.55,1.9,13.79,4.65,18.7,8.24,4.91,3.59,8.53,7.9,10.86,12.92,2.32,5.02,3.49,10.59,3.49,16.72,0,5.71-.98,11.01-2.93,15.93-1.95,4.91-4.83,9.13-8.64,12.68-3.8,3.54-8.45,6.32-13.94,8.32-5.49,2.01-11.77,3.01-18.85,3.01h-45v-80.66Zm94.52,156.88c-2.38,4.96-6.03,9.22-10.93,12.75-4.91,3.54-11.15,6.29-18.7,8.24-7.56,1.96-16.46,2.93-26.71,2.93h-38.18v-87.15h37.08c11.3,0,20.83,1.21,28.6,3.64,7.76,2.44,14.05,5.73,18.86,9.91,4.8,4.17,8.26,9.12,10.37,14.82,2.11,5.71,3.17,11.89,3.17,18.54,0,5.92-1.19,11.36-3.56,16.33Z"/>
          <path class="cls-7" d="m1474.85,2673.87l-72.58,106.49-72.89-106.49h-36.13l83.99,122.65v87.48h35.34v-90.8l81.45-119.33h-19.17Z"/>
          <path class="cls-7" d="m1501,2673.87v13.63h76.06v196.5h35.34v-196.5h76.06v-13.63h-187.47Z"/>
          <path class="cls-7" d="m1805.26,2669.11h-8.88l-13.56,28.78,12.16,26.89.06.12,32.3,70.35,8.76,18.69h.06l1.91,4.2,30.1,65.84h35.97l-98.89-214.88Z"/>
          <path class="cls-7" d="m2092.4,2673.87v153.71h-1.59l-137.7-153.71h-19.81v210.13h16v-165.91h1.27l149.12,170.83h8.24v-215.04h-15.53Z"/>
        </g>
      </g>
      <path class="cls-7" d="m1791.91,2855.55c0,18.2-14.76,32.96-32.96,32.96s-32.96-14.76-32.96-32.96,20.24-57.57,32.96-86.56c13.99,29.81,32.96,68.36,32.96,86.56Z"/>
      <path class="cls-7" d="m1207.03,2669.11h-8.88l-13.56,28.78,12.16,26.89.06.12,32.3,70.35,8.76,18.69h.06l1.91,4.2,30.1,65.84h35.97l-98.89-214.88Z"/>
      <path class="cls-7" d="m1193.68,2855.55c0,18.2-14.76,32.96-32.96,32.96s-32.96-14.76-32.96-32.96,20.24-57.57,32.96-86.56c13.99,29.81,32.96,68.36,32.96,86.56Z"/>
      <text class="cls-6" transform="translate(2275.62 2900.21)"><tspan x="0" y="0">GROUP</tspan></text>
      <path class="cls-7" d="m600.38,2673.87h36.05l81.76,161.25h1.66l80.25-161.25h35.45v210.12h-35.45v-172.11h-1.21l-86.13,172.11h-7.24l-87.19-170.91h-2.41v170.91h-15.54v-210.12Z"/>
    </g>
  </g>
  <path class="cls-5" d="m2705.07,1669.87s-14.48-443.13-376.57-837.04c0,0-194.03,127.41-318.58,280.92,0,0-199.81-199.81-338.84-280.92,0,0-402.61,472.09-376.57,938.4,26.1,466.31,350.46,640.08,498.2,674.83,0,0-764.63-463.39-55-1375.76,0,0,136.11,86.89,167.93,144.81-208.89,320.51-235.86,635.11-99.38,766.12,27.78,26.66,78.5,61.28,171.78,70.97,126.66-4.97,187.82-52.52,213.98-78.25,135.67-133.44,112.18-447.92-109.7-750.15,13.24-18.21,29.21-37.54,48.17-57.18,30.76-31.88,74.95-70.23,128.53-96.33,0,0,729.89,825.48-52.14,1375.76,0,0,532.94-121.63,498.2-776.19Zm-695.15,309.88s-382.29-5.78-14.48-660.35c0,0,396.83,590.86,14.48,660.35Z"/>
</svg>