<?xml version="1.0" encoding="UTF-8"?>
<svg id="Layer_1" data-name="Layer 1" xmlns="http://www.w3.org/2000/svg" viewBox="0 0 4000 4000">
  <defs>
    <style>
      .cls-1, .cls-2, .cls-3 {
        fill: #12241d;
      }

      .cls-4 {
        letter-spacing: .05em;
      }

      .cls-2 {
        font-family: BanglaMN, 'Bangla MN';
        font-size: 309.45px;
      }

      .cls-5 {
        letter-spacing: .05em;
      }

      .cls-6 {
        letter-spacing: .06em;
      }

      .cls-7 {
        letter-spacing: .05em;
      }

      .cls-3 {
        font-family: Montserrat-Medium, Montserrat;
        font-size: 190.84px;
        font-weight: 500;
      }

      .cls-8 {
        letter-spacing: .05em;
      }

      .cls-9 {
        letter-spacing: .04em;
      }
    </style>
  </defs>
  <g>
    <text class="cls-3" transform="translate(1053.05 3110.85)"><tspan class="cls-8" x="0" y="0">o</tspan><tspan class="cls-4" x="129.77" y="0">asis de bien</tspan><tspan class="cls-6" x="1382.64" y="0">-</tspan><tspan class="cls-7" x="1467.18" y="0">êt</tspan><tspan class="cls-9" x="1682.06" y="0">r</tspan><tspan class="cls-5" x="1767.56" y="0">e</tspan></text>
    <g>
      <g>
        <g>
          <path class="cls-1" d="m1064.58,2807.85c-2.32-5.87-5.63-10.99-9.91-15.37-4.28-4.38-9.43-8-15.45-10.86-6.02-2.85-12.78-4.86-20.29-6.02v-.63c7.51-3.59,13.72-7.11,18.62-10.54,4.91-3.43,8.85-7.08,11.81-10.93,2.95-3.86,5.01-8.05,6.18-12.59,1.16-4.54,1.74-9.72,1.74-15.53,0-7.61-1.85-14.58-5.55-20.92-3.7-6.34-8.9-11.78-15.6-16.33-6.71-4.53-14.74-8.05-24.09-10.53-9.35-2.49-19.63-3.72-30.82-3.72h-84.63v210.13h98.1c11.19,0,21.32-1.48,30.35-4.44,9.03-2.95,16.74-6.99,23.14-12.13,6.39-5.11,11.31-11.14,14.73-18.06,3.44-6.92,5.15-14.34,5.15-22.27,0-6.97-1.16-13.39-3.49-19.25Zm-132.63-120.04h29.16c10.56,0,19.62.95,27.17,2.86,7.55,1.9,13.79,4.65,18.7,8.24,4.91,3.59,8.53,7.9,10.86,12.92,2.32,5.02,3.49,10.59,3.49,16.72,0,5.71-.98,11.01-2.93,15.93-1.95,4.91-4.83,9.13-8.64,12.68-3.8,3.54-8.45,6.32-13.94,8.32-5.49,2.01-11.77,3.01-18.85,3.01h-45v-80.66Zm94.52,156.88c-2.38,4.96-6.03,9.22-10.93,12.75-4.91,3.54-11.15,6.29-18.7,8.24-7.56,1.96-16.46,2.93-26.71,2.93h-38.18v-87.15h37.08c11.3,0,20.83,1.21,28.6,3.64,7.76,2.44,14.05,5.73,18.86,9.91,4.8,4.17,8.26,9.12,10.37,14.82,2.11,5.71,3.17,11.89,3.17,18.54,0,5.92-1.19,11.36-3.56,16.33Z"/>
          <path class="cls-1" d="m1474.85,2673.87l-72.58,106.49-72.89-106.49h-36.13l83.99,122.65v87.48h35.34v-90.8l81.45-119.33h-19.17Z"/>
          <path class="cls-1" d="m1501,2673.87v13.63h76.06v196.5h35.34v-196.5h76.06v-13.63h-187.47Z"/>
          <path class="cls-1" d="m1805.26,2669.11h-8.88l-13.56,28.78,12.16,26.89.06.12,32.3,70.35,8.76,18.69h.06l1.91,4.2,30.1,65.84h35.97l-98.89-214.88Z"/>
          <path class="cls-1" d="m2092.4,2673.87v153.71h-1.59l-137.7-153.71h-19.81v210.13h16v-165.91h1.27l149.12,170.83h8.24v-215.04h-15.53Z"/>
        </g>
        <g>
          <path class="cls-1" d="m1064.58,2807.85c-2.32-5.87-5.63-10.99-9.91-15.37-4.28-4.38-9.43-8-15.45-10.86-6.02-2.85-12.78-4.86-20.29-6.02v-.63c7.51-3.59,13.72-7.11,18.62-10.54,4.91-3.43,8.85-7.08,11.81-10.93,2.95-3.86,5.01-8.05,6.18-12.59,1.16-4.54,1.74-9.72,1.74-15.53,0-7.61-1.85-14.58-5.55-20.92-3.7-6.34-8.9-11.78-15.6-16.33-6.71-4.53-14.74-8.05-24.09-10.53-9.35-2.49-19.63-3.72-30.82-3.72h-84.63v210.13h98.1c11.19,0,21.32-1.48,30.35-4.44,9.03-2.95,16.74-6.99,23.14-12.13,6.39-5.11,11.31-11.14,14.73-18.06,3.44-6.92,5.15-14.34,5.15-22.27,0-6.97-1.16-13.39-3.49-19.25Zm-132.63-120.04h29.16c10.56,0,19.62.95,27.17,2.86,7.55,1.9,13.79,4.65,18.7,8.24,4.91,3.59,8.53,7.9,10.86,12.92,2.32,5.02,3.49,10.59,3.49,16.72,0,5.71-.98,11.01-2.93,15.93-1.95,4.91-4.83,9.13-8.64,12.68-3.8,3.54-8.45,6.32-13.94,8.32-5.49,2.01-11.77,3.01-18.85,3.01h-45v-80.66Zm94.52,156.88c-2.38,4.96-6.03,9.22-10.93,12.75-4.91,3.54-11.15,6.29-18.7,8.24-7.56,1.96-16.46,2.93-26.71,2.93h-38.18v-87.15h37.08c11.3,0,20.83,1.21,28.6,3.64,7.76,2.44,14.05,5.73,18.86,9.91,4.8,4.17,8.26,9.12,10.37,14.82,2.11,5.71,3.17,11.89,3.17,18.54,0,5.92-1.19,11.36-3.56,16.33Z"/>
          <path class="cls-1" d="m1474.85,2673.87l-72.58,106.49-72.89-106.49h-36.13l83.99,122.65v87.48h35.34v-90.8l81.45-119.33h-19.17Z"/>
          <path class="cls-1" d="m1501,2673.87v13.63h76.06v196.5h35.34v-196.5h76.06v-13.63h-187.47Z"/>
          <path class="cls-1" d="m1805.26,2669.11h-8.88l-13.56,28.78,12.16,26.89.06.12,32.3,70.35,8.76,18.69h.06l1.91,4.2,30.1,65.84h35.97l-98.89-214.88Z"/>
          <path class="cls-1" d="m2092.4,2673.87v153.71h-1.59l-137.7-153.71h-19.81v210.13h16v-165.91h1.27l149.12,170.83h8.24v-215.04h-15.53Z"/>
        </g>
      </g>
      <path class="cls-1" d="m1791.91,2855.55c0,18.2-14.76,32.96-32.96,32.96s-32.96-14.76-32.96-32.96,20.24-57.57,32.96-86.56c13.99,29.81,32.96,68.36,32.96,86.56Z"/>
      <path class="cls-1" d="m1207.03,2669.11h-8.88l-13.56,28.78,12.16,26.89.06.12,32.3,70.35,8.76,18.69h.06l1.91,4.2,30.1,65.84h35.97l-98.89-214.88Z"/>
      <path class="cls-1" d="m1193.68,2855.55c0,18.2-14.76,32.96-32.96,32.96s-32.96-14.76-32.96-32.96,20.24-57.57,32.96-86.56c13.99,29.81,32.96,68.36,32.96,86.56Z"/>
      <text class="cls-2" transform="translate(2275.62 2900.21)"><tspan x="0" y="0">GROUP</tspan></text>
      <path class="cls-1" d="m600.38,2673.87h36.05l81.76,161.25h1.66l80.25-161.25h35.45v210.12h-35.45v-172.11h-1.21l-86.13,172.11h-7.24l-87.19-170.91h-2.41v170.91h-15.54v-210.12Z"/>
    </g>
  </g>
  <path class="cls-1" d="m2724.64,1693.1s-14.88-455.43-387.02-860.27c0,0-199.42,130.94-327.42,288.72,0,0-205.36-205.36-348.25-288.72,0,0-413.78,485.2-387.02,964.45,26.83,479.26,360.19,657.85,512.02,693.56,0,0-785.86-476.25-56.53-1413.94,0,0,139.89,89.3,172.59,148.83-214.68,329.4-242.41,652.74-102.14,787.39,28.55,27.4,80.67,62.98,176.55,72.94,130.18-5.11,193.03-53.97,219.92-80.42,139.44-137.14,115.29-460.35-112.74-770.97,13.61-18.72,30.02-38.58,49.5-58.77,31.62-32.77,77.03-72.18,132.09-99.01,0,0,750.15,848.39-53.59,1413.94,0,0,547.73-125,512.02-797.74Zm-714.44,318.48s-392.9-5.94-14.88-678.67c0,0,407.84,607.26,14.88,678.67Z"/>
</svg>